<?xml version="1.0" encoding="utf-8"?>
<svg xmlns:xlink="http://www.w3.org/1999/xlink" xmlns="http://www.w3.org/2000/svg">
    <symbol viewBox="0 0 511.626 511.626" id="anchor" xmlns="http://www.w3.org/2000/svg">
        <path d="M509.053 333.753c-1.711-1.711-3.901-2.566-6.563-2.566H401.991c-4.186 0-7.039 1.902-8.565 5.711-1.523 3.617-.855 6.951 1.995 9.996l28.551 28.548c-12.751 17.323-30.785 31.929-54.101 43.828-23.315 11.898-49.152 19.745-77.516 23.555V258.096h54.816c4.948 0 9.236-1.812 12.854-5.424 3.613-3.612 5.424-7.898 5.424-12.847v-36.547c0-4.947-1.811-9.229-5.424-12.847-3.617-3.616-7.905-5.424-12.854-5.424h-54.816v-46.536c11.04-6.473 19.89-15.275 26.553-26.409 6.663-11.138 9.996-23.363 9.996-36.691 0-20.174-7.139-37.401-21.412-51.673-14.275-14.277-31.498-21.416-51.675-21.416-20.177 0-37.404 7.139-51.682 21.416-14.272 14.272-21.411 31.499-21.411 51.673 0 13.328 3.333 25.553 9.994 36.691 6.662 11.134 15.513 19.936 26.551 26.409v46.536h-54.816c-4.952 0-9.235 1.809-12.85 5.424-3.618 3.617-5.426 7.9-5.426 12.847v36.547c0 4.949 1.809 9.235 5.426 12.847 3.619 3.616 7.902 5.424 12.85 5.424h54.816v184.729c-28.359-3.812-54.2-11.663-77.514-23.559-23.315-11.902-41.352-26.508-54.103-43.831l28.549-28.541c2.853-3.053 3.521-6.379 1.997-9.999-1.521-3.812-4.377-5.715-8.564-5.715H9.135c-2.666 0-4.856.855-6.567 2.573C.859 335.464 0 337.654 0 340.323v100.495c0 4.182 1.903 7.043 5.708 8.562 1.525.38 2.667.568 3.427.568 2.667 0 4.854-.856 6.567-2.561l26.552-26.556c22.648 27.217 52.96 48.772 90.932 64.665s78.847 23.846 122.626 23.846c43.776 0 84.651-7.953 122.623-23.846 37.973-15.893 68.286-37.445 90.934-64.665l26.556 26.556c1.903 1.704 4.086 2.561 6.564 2.561.76 0 1.902-.192 3.429-.568 3.806-1.52 5.708-4.381 5.708-8.562V340.323c0-2.669-.859-4.859-2.573-6.57zM268.66 88.218c-3.613 3.617-7.895 5.43-12.847 5.43s-9.232-1.812-12.85-5.43c-3.617-3.612-5.424-7.898-5.424-12.847 0-4.947 1.807-9.229 5.424-12.847 3.621-3.616 7.902-5.424 12.85-5.424s9.233 1.809 12.847 5.424c3.614 3.617 5.428 7.9 5.428 12.847-.001 4.948-1.814 9.235-5.428 12.847z"/>
    </symbol>
    <symbol viewBox="0 0 24 24" id="angle-up" xmlns="http://www.w3.org/2000/svg">
        <path d="M17 13.41l-4.29-4.24a1 1 0 00-1.42 0l-4.24 4.24a1 1 0 000 1.42 1 1 0 001.41 0L12 11.29l3.54 3.54a1 1 0 00.7.29 1 1 0 00.71-.29 1 1 0 00.05-1.42z"/>
    </symbol>
    <symbol viewBox="0 0 640 512" id="coffee" xmlns="http://www.w3.org/2000/svg">
        <path d="M192 384h192c53 0 96-43 96-96h32c70.6 0 128-57.4 128-128S582.6 32 512 32H120c-13.3 0-24 10.7-24 24v232c0 53 43 96 96 96zM512 96c35.3 0 64 28.7 64 64s-28.7 64-64 64h-32V96h32zm47.7 384H48.3c-47.6 0-61-64-36-64h583.3c25 0 11.8 64-35.9 64z"/>
    </symbol>
    <symbol viewBox="0 0 24 24" id="desktop" xmlns="http://www.w3.org/2000/svg">
        <path d="M19 3H5a3 3 0 00-3 3v8a3 3 0 003 3h6v2H7a1 1 0 000 2h10a1 1 0 000-2h-4v-2h6a3 3 0 003-3V6a3 3 0 00-3-3zm1 11a1 1 0 01-1 1H5a1 1 0 01-1-1V6a1 1 0 011-1h14a1 1 0 011 1z"/>
    </symbol>
    <symbol viewBox="0 0 512 512" id="envelope" xmlns="http://www.w3.org/2000/svg">
        <path d="M502.3 190.8c3.9-3.1 9.7-.2 9.7 4.7V400c0 26.5-21.5 48-48 48H48c-26.5 0-48-21.5-48-48V195.6c0-5 5.7-7.8 9.7-4.7 22.4 17.4 52.1 39.5 154.1 113.6 21.1 15.4 56.7 47.8 92.2 47.6 35.7.3 72-32.8 92.3-47.6 102-74.1 131.6-96.3 154-113.7zM256 320c23.2.4 56.6-29.2 73.4-41.4 132.7-96.3 142.8-104.7 173.4-128.7 5.8-4.5 9.2-11.5 9.2-18.9v-19c0-26.5-21.5-48-48-48H48C21.5 64 0 85.5 0 112v19c0 7.4 3.4 14.3 9.2 18.9 30.6 23.9 40.7 32.4 173.4 128.7 16.8 12.2 50.2 41.8 73.4 41.4z"/>
    </symbol>
    <symbol viewBox="0 0 264 512" id="facebook" xmlns="http://www.w3.org/2000/svg">
        <path d="M215.8 85H264V3.6C255.7 2.5 227.1 0 193.8 0 124.3 0 76.7 42.4 76.7 120.3V192H0v91h76.7v229h94V283h73.6l11.7-91h-85.3v-62.7c0-26.3 7.3-44.3 45.1-44.3z"/>
    </symbol>
    <symbol viewBox="0 0 576 512" id="gem" xmlns="http://www.w3.org/2000/svg">
        <path d="M464 0H112c-4 0-7.8 2-10 5.4L2 152.6c-2.9 4.4-2.6 10.2.7 14.2l276 340.8c4.8 5.9 13.8 5.9 18.6 0l276-340.8c3.3-4.1 3.6-9.8.7-14.2L474.1 5.4C471.8 2 468.1 0 464 0zm-19.3 48l63.3 96h-68.4l-51.7-96h56.8zm-202.1 0h90.7l51.7 96H191l51.6-96zm-111.3 0h56.8l-51.7 96H68l63.3-96zm-43 144h51.4L208 352 88.3 192zm102.9 0h193.6L288 435.3 191.2 192zM368 352l68.2-160h51.4L368 352z"/>
    </symbol>
    <symbol viewBox="0 0 512 512" id="gift" xmlns="http://www.w3.org/2000/svg">
        <path d="M32 448c0 17.7 14.3 32 32 32h160V320H32v128zm256 32h160c17.7 0 32-14.3 32-32V320H288v160zm192-320h-42.1c6.2-12.1 10.1-25.5 10.1-40 0-48.5-39.5-88-88-88-41.6 0-68.5 21.3-103 68.3-34.5-47-61.4-68.3-103-68.3-48.5 0-88 39.5-88 88 0 14.5 3.8 27.9 10.1 40H32c-17.7 0-32 14.3-32 32v80c0 8.8 7.2 16 16 16h480c8.8 0 16-7.2 16-16v-80c0-17.7-14.3-32-32-32zm-326.1 0c-22.1 0-40-17.9-40-40s17.9-40 40-40c19.9 0 34.6 3.3 86.1 80h-86.1zm206.1 0h-86.1c51.4-76.5 65.7-80 86.1-80 22.1 0 40 17.9 40 40s-17.9 40-40 40z"/>
    </symbol>
    <symbol viewBox="0 0 640 512" id="google-plus" xmlns="http://www.w3.org/2000/svg">
        <path d="M386.061 228.496c1.834 9.692 3.143 19.384 3.143 31.956C389.204 370.205 315.599 448 204.8 448c-106.084 0-192-85.915-192-192s85.916-192 192-192c51.864 0 95.083 18.859 128.611 50.292l-52.126 50.03c-14.145-13.621-39.028-29.599-76.485-29.599-65.484 0-118.92 54.221-118.92 121.277 0 67.056 53.436 121.277 118.92 121.277 75.961 0 104.513-54.745 108.965-82.773H204.8v-66.009h181.261zm185.406 6.437V179.2h-56.001v55.733h-55.733v56.001h55.733v55.733h56.001v-55.733H627.2v-56.001h-55.733z"/>
    </symbol>
    <symbol viewBox="0 0 512 512" id="heart" xmlns="http://www.w3.org/2000/svg">
        <path d="M462.3 62.6C407.5 15.9 326 24.3 275.7 76.2L256 96.5l-19.7-20.3C186.1 24.3 104.5 15.9 49.7 62.6c-62.8 53.6-66.1 149.8-9.9 207.9l193.5 199.8c12.5 12.9 32.8 12.9 45.3 0l193.5-199.8c56.3-58.1 53-154.3-9.8-207.9z"/>
    </symbol>
    <symbol viewBox="0 0 438.536 438.536" id="instagram" xmlns="http://www.w3.org/2000/svg">
        <path d="M421.981 16.562C410.941 5.519 397.711 0 382.298 0H56.248C40.83 0 27.604 5.521 16.561 16.562 5.52 27.6.001 40.828.001 56.243V382.29c0 15.413 5.518 28.644 16.56 39.683 11.043 11.04 24.272 16.563 39.687 16.563h326.046c15.41 0 28.644-5.523 39.684-16.563 11.043-11.039 16.557-24.27 16.557-39.683V56.243c-.001-15.418-5.514-28.639-16.554-39.681zM157.462 158.025c17.224-16.652 37.924-24.982 62.097-24.982 24.36 0 45.153 8.33 62.381 24.982 17.228 16.655 25.837 36.785 25.837 60.386 0 23.598-8.609 43.729-25.837 60.379-17.228 16.659-38.014 24.988-62.381 24.988-24.172 0-44.87-8.336-62.097-24.988-17.228-16.652-25.841-36.781-25.841-60.379 0-23.601 8.613-43.73 25.841-60.386zm231.403 212.564c0 4.945-1.718 9.083-5.141 12.416-3.433 3.33-7.519 4.996-12.282 4.996h-305.2c-4.948 0-9.091-1.666-12.419-4.996-3.333-3.326-4.998-7.471-4.998-12.416V185.575H89.08c-3.805 11.993-5.708 24.462-5.708 37.402 0 36.553 13.322 67.715 39.969 93.511 26.65 25.786 58.721 38.685 96.217 38.685 24.744 0 47.583-5.903 68.527-17.703 20.937-11.807 37.486-27.839 49.676-48.112 12.183-20.272 18.274-42.4 18.274-66.38 0-12.94-1.91-25.406-5.715-37.402h38.547V370.59h-.002zm0-254.963c0 5.52-1.903 10.184-5.716 13.99-3.805 3.809-8.466 5.711-13.989 5.711h-49.676c-5.517 0-10.185-1.903-13.99-5.711-3.806-3.806-5.708-8.47-5.708-13.99V68.522c0-5.33 1.902-9.945 5.708-13.848 3.806-3.901 8.474-5.854 13.99-5.854h49.676c5.523 0 10.185 1.952 13.989 5.854 3.812 3.903 5.716 8.518 5.716 13.848v47.104z"/>
    </symbol>
    <symbol viewBox="0 0 576 512" id="leaf" xmlns="http://www.w3.org/2000/svg">
        <path d="M546.2 9.7c-5.6-12.5-21.6-13-28.3-1.2C486.9 62.4 431.4 96 368 96h-80C182 96 96 182 96 288c0 7 .8 13.7 1.5 20.5C161.3 262.8 253.4 224 384 224c8.8 0 16 7.2 16 16s-7.2 16-16 16C132.6 256 26 410.1 2.4 468c-6.6 16.3 1.2 34.9 17.5 41.6 16.4 6.8 35-1.1 41.8-17.3 1.5-3.6 20.9-47.9 71.9-90.6 32.4 43.9 94 85.8 174.9 77.2C465.5 467.5 576 326.7 576 154.3c0-50.2-10.8-102.2-29.8-144.6z"/>
    </symbol>
    <symbol viewBox="0 0 16 16" id="phone-solid" xmlns="http://www.w3.org/2000/svg">
        <path d="M12.2 10c-1.1-.1-1.7 1.4-2.5 1.8C8.4 12.5 6 10 6 10S3.5 7.6 4.1 6.3c.5-.8 2-1.4 1.9-2.5-.1-1-2.3-4.6-3.4-3.6C.2 2.4 0 3.3 0 5.1c-.1 3.1 3.9 7 3.9 7 .4.4 3.9 4 7 3.9 1.8 0 2.7-.2 4.9-2.6 1-1.1-2.5-3.3-3.6-3.4z"/>
    </symbol>
    <symbol viewBox="0 0 384 512" id="pinterest" xmlns="http://www.w3.org/2000/svg">
        <path d="M204 6.5C101.4 6.5 0 74.9 0 185.6 0 256 39.6 296 63.6 296c9.9 0 15.6-27.6 15.6-35.4 0-9.3-23.7-29.1-23.7-67.8 0-80.4 61.2-137.4 140.4-137.4 68.1 0 118.5 38.7 118.5 109.8 0 53.1-21.3 152.7-90.3 152.7-24.9 0-46.2-18-46.2-43.8 0-37.8 26.4-74.4 26.4-113.4 0-66.2-93.9-54.2-93.9 25.8 0 16.8 2.1 35.4 9.6 50.7-13.8 59.4-42 147.9-42 209.1 0 18.9 2.7 37.5 4.5 56.4 3.4 3.8 1.7 3.4 6.9 1.5 50.4-69 48.6-82.5 71.4-172.8 12.3 23.4 44.1 36 69.3 36 106.2 0 153.9-103.5 153.9-196.8C384 71.3 298.2 6.5 204 6.5z"/>
    </symbol>
    <symbol viewBox="0 0 512 512" id="rocket" xmlns="http://www.w3.org/2000/svg">
        <path d="M505.05 19.1a15.89 15.89 0 00-12.2-12.2C460.65 0 435.46 0 410.36 0c-103.2 0-165.1 55.2-211.29 128H94.87A48 48 0 0052 154.49l-49.42 98.8A24 24 0 0024.07 288h103.77l-22.47 22.47a32 32 0 000 45.25l50.9 50.91a32 32 0 0045.26 0L224 384.16V488a24 24 0 0034.7 21.49l98.7-49.39a47.91 47.91 0 0026.5-42.9V312.79c72.59-46.3 128-108.4 128-211.09.1-25.2.1-50.4-6.85-82.6zM384 168a40 40 0 1140-40 40 40 0 01-40 40z"/>
    </symbol>
    <symbol viewBox="0 0 496 512" id="smile" xmlns="http://www.w3.org/2000/svg">
        <path d="M248 8C111 8 0 119 0 256s111 248 248 248 248-111 248-248S385 8 248 8zm80 168c17.7 0 32 14.3 32 32s-14.3 32-32 32-32-14.3-32-32 14.3-32 32-32zm-160 0c17.7 0 32 14.3 32 32s-14.3 32-32 32-32-14.3-32-32 14.3-32 32-32zm194.8 170.2C334.3 380.4 292.5 400 248 400s-86.3-19.6-114.8-53.8c-13.6-16.3 11-36.7 24.6-20.5 22.4 26.9 55.2 42.2 90.2 42.2s67.8-15.4 90.2-42.2c13.4-16.2 38.1 4.2 24.6 20.5z"/>
    </symbol>
    <symbol viewBox="0 0 576 512" id="trophy" xmlns="http://www.w3.org/2000/svg">
        <path d="M552 64H448V24c0-13.3-10.7-24-24-24H152c-13.3 0-24 10.7-24 24v40H24C10.7 64 0 74.7 0 88v56c0 35.7 22.5 72.4 61.9 100.7 31.5 22.7 69.8 37.1 110 41.7C203.3 338.5 240 360 240 360v72h-48c-35.3 0-64 20.7-64 56v12c0 6.6 5.4 12 12 12h296c6.6 0 12-5.4 12-12v-12c0-35.3-28.7-56-64-56h-48v-72s36.7-21.5 68.1-73.6c40.3-4.6 78.6-19 110-41.7 39.3-28.3 61.9-65 61.9-100.7V88c0-13.3-10.7-24-24-24zM99.3 192.8C74.9 175.2 64 155.6 64 144v-16h64.2c1 32.6 5.8 61.2 12.8 86.2-15.1-5.2-29.2-12.4-41.7-21.4zM512 144c0 16.1-17.7 36.1-35.3 48.8-12.5 9-26.7 16.2-41.8 21.4 7-25 11.8-53.6 12.8-86.2H512v16z"/>
    </symbol>
    <symbol viewBox="0 0 512 512" id="twitter" xmlns="http://www.w3.org/2000/svg">
        <path d="M459.37 151.716c.325 4.548.325 9.097.325 13.645 0 138.72-105.583 298.558-298.558 298.558-59.452 0-114.68-17.219-161.137-47.106 8.447.974 16.568 1.299 25.34 1.299 49.055 0 94.213-16.568 130.274-44.832-46.132-.975-84.792-31.188-98.112-72.772 6.498.974 12.995 1.624 19.818 1.624 9.421 0 18.843-1.3 27.614-3.573-48.081-9.747-84.143-51.98-84.143-102.985v-1.299c13.969 7.797 30.214 12.67 47.431 13.319-28.264-18.843-46.781-51.005-46.781-87.391 0-19.492 5.197-37.36 14.294-52.954 51.655 63.675 129.3 105.258 216.365 109.807-1.624-7.797-2.599-15.918-2.599-24.04 0-57.828 46.782-104.934 104.934-104.934 30.213 0 57.502 12.67 76.67 33.137 23.715-4.548 46.456-13.32 66.599-25.34-7.798 24.366-24.366 44.833-46.132 57.827 21.117-2.273 41.584-8.122 60.426-16.243-14.292 20.791-32.161 39.308-52.628 54.253z"/>
    </symbol>
    <symbol viewBox="0 0 576 512" id="youtube" xmlns="http://www.w3.org/2000/svg">
        <path d="M549.655 124.083c-6.281-23.65-24.787-42.276-48.284-48.597C458.781 64 288 64 288 64S117.22 64 74.629 75.486c-23.497 6.322-42.003 24.947-48.284 48.597-11.412 42.867-11.412 132.305-11.412 132.305s0 89.438 11.412 132.305c6.281 23.65 24.787 41.5 48.284 47.821C117.22 448 288 448 288 448s170.78 0 213.371-11.486c23.497-6.321 42.003-24.171 48.284-47.821 11.412-42.867 11.412-132.305 11.412-132.305s0-89.438-11.412-132.305zm-317.51 213.508V175.185l142.739 81.205-142.739 81.201z"/>
    </symbol>
</svg>