<?xml version="1.0" encoding="utf-8"?>
<svg xmlns:xlink="http://www.w3.org/1999/xlink" xmlns="http://www.w3.org/2000/svg">
    <symbol viewBox="0 0 512 512" id="clock" xmlns="http://www.w3.org/2000/svg">
        <path d="M256 8C119 8 8 119 8 256s111 248 248 248 248-111 248-248S393 8 256 8zm0 448c-110.5 0-200-89.5-200-200S145.5 56 256 56s200 89.5 200 200-89.5 200-200 200zm61.8-104.4l-84.9-61.7c-3.1-2.3-4.9-5.9-4.9-9.7V116c0-6.6 5.4-12 12-12h32c6.6 0 12 5.4 12 12v141.7l66.8 48.6c5.4 3.9 6.5 11.4 2.6 16.8L334.6 349c-3.9 5.3-11.4 6.5-16.8 2.6z"/>
    </symbol>
    <symbol viewBox="0 0 512 512" id="comment-alt" xmlns="http://www.w3.org/2000/svg">
        <path d="M448 0H64C28.7 0 0 28.7 0 64v288c0 35.3 28.7 64 64 64h96v84c0 7.1 5.8 12 12 12 2.4 0 4.9-.7 7.1-2.4L304 416h144c35.3 0 64-28.7 64-64V64c0-35.3-28.7-64-64-64zm16 352c0 8.8-7.2 16-16 16H288l-12.8 9.6L208 428v-60H64c-8.8 0-16-7.2-16-16V64c0-8.8 7.2-16 16-16h384c8.8 0 16 7.2 16 16v288z"/>
    </symbol>
    <symbol viewBox="0 0 320 512" id="facebook-f" xmlns="http://www.w3.org/2000/svg">
        <path d="M279.14 288l14.22-92.66h-88.91v-60.13c0-25.35 12.42-50.06 52.24-50.06h40.42V6.26S260.43 0 225.36 0c-73.22 0-121.08 44.38-121.08 124.72v70.62H22.89V288h81.39v224h100.17V288z"/>
    </symbol>
    <symbol viewBox="0 0 24 24" id="globe" xmlns="http://www.w3.org/2000/svg">
        <path d="M21.41 8.64v-.05a10 10 0 00-18.78 0v.05a9.86 9.86 0 000 6.72v.05a10 10 0 0018.78 0v-.05a9.86 9.86 0 000-6.72zM4.26 14a7.82 7.82 0 010-4h1.86a16.73 16.73 0 000 4zm.82 2h1.4a12.15 12.15 0 001 2.57A8 8 0 015.08 16zm1.4-8h-1.4a8 8 0 012.37-2.57A12.15 12.15 0 006.48 8zM11 19.7A6.34 6.34 0 018.57 16H11zm0-5.7H8.14a14.36 14.36 0 010-4H11zm0-6H8.57A6.34 6.34 0 0111 4.3zm7.92 0h-1.4a12.15 12.15 0 00-1-2.57A8 8 0 0118.92 8zM13 4.3A6.34 6.34 0 0115.43 8H13zm0 15.4V16h2.43A6.34 6.34 0 0113 19.7zm2.86-5.7H13v-4h2.86a14.36 14.36 0 010 4zm.69 4.57a12.15 12.15 0 001-2.57h1.4a8 8 0 01-2.4 2.57zM19.74 14h-1.86a16.16 16.16 0 00.12-2 16.28 16.28 0 00-.12-2h1.86a7.82 7.82 0 010 4z"/>
    </symbol>
    <symbol viewBox="0 0 448 512" id="instagram" xmlns="http://www.w3.org/2000/svg">
        <path d="M224.1 141c-63.6 0-114.9 51.3-114.9 114.9s51.3 114.9 114.9 114.9S339 319.5 339 255.9 287.7 141 224.1 141zm0 189.6c-41.1 0-74.7-33.5-74.7-74.7s33.5-74.7 74.7-74.7 74.7 33.5 74.7 74.7-33.6 74.7-74.7 74.7zm146.4-194.3c0 14.9-12 26.8-26.8 26.8-14.9 0-26.8-12-26.8-26.8s12-26.8 26.8-26.8 26.8 12 26.8 26.8zm76.1 27.2c-1.7-35.9-9.9-67.7-36.2-93.9-26.2-26.2-58-34.4-93.9-36.2-37-2.1-147.9-2.1-184.9 0-35.8 1.7-67.6 9.9-93.9 36.1s-34.4 58-36.2 93.9c-2.1 37-2.1 147.9 0 184.9 1.7 35.9 9.9 67.7 36.2 93.9s58 34.4 93.9 36.2c37 2.1 147.9 2.1 184.9 0 35.9-1.7 67.7-9.9 93.9-36.2 26.2-26.2 34.4-58 36.2-93.9 2.1-37 2.1-147.8 0-184.8zM398.8 388c-7.8 19.6-22.9 34.7-42.6 42.6-29.5 11.7-99.5 9-132.1 9s-102.7 2.6-132.1-9c-19.6-7.8-34.7-22.9-42.6-42.6-11.7-29.5-9-99.5-9-132.1s-2.6-102.7 9-132.1c7.8-19.6 22.9-34.7 42.6-42.6 29.5-11.7 99.5-9 132.1-9s102.7-2.6 132.1 9c19.6 7.8 34.7 22.9 42.6 42.6 11.7 29.5 9 99.5 9 132.1s2.7 102.7-9 132.1z"/>
    </symbol>
    <symbol viewBox="0 0 448 512" id="linkedin-in" xmlns="http://www.w3.org/2000/svg">
        <path d="M100.28 448H7.4V148.9h92.88zM53.79 108.1C24.09 108.1 0 83.5 0 53.8a53.79 53.79 0 01107.58 0c0 29.7-24.1 54.3-53.79 54.3zM447.9 448h-92.68V302.4c0-34.7-.7-79.2-48.29-79.2-48.29 0-55.69 37.7-55.69 76.7V448h-92.78V148.9h89.08v40.8h1.3c12.4-23.5 42.69-48.3 87.88-48.3 94 0 111.28 61.9 111.28 142.3V448z"/>
    </symbol>
    <symbol viewBox="0 0 24 24" id="mobile" xmlns="http://www.w3.org/2000/svg">
        <path fill-rule="evenodd"
              d="M7 2h10a2 2 0 012 2v16a2 2 0 01-2 2H7a2 2 0 01-2-2V4a2 2 0 012-2zm0 2v16h10V4H7zm5 15a1 1 0 110-2 1 1 0 010 2z"/>
    </symbol>
    <symbol viewBox="0 0 24 24" id="monitor" xmlns="http://www.w3.org/2000/svg">
        <path fill-rule="evenodd"
              d="M9 20v-1H3a2 2 0 01-2-2V4a2 2 0 012-2h18a2 2 0 012 2v13a2 2 0 01-2 2h-6v1h2v2H7v-2h2zm-6-3h18V4H3v13z"/>
    </symbol>
    <symbol viewBox="0 0 24 24" id="share-alt" xmlns="http://www.w3.org/2000/svg">
        <path d="M18 14a4 4 0 00-3.08 1.48l-5.1-2.35a3.64 3.64 0 000-2.26l5.1-2.35A4 4 0 1014 6a4.17 4.17 0 00.07.71L8.79 9.14a4 4 0 100 5.72l5.28 2.43A4.17 4.17 0 0014 18a4 4 0 104-4zm0-10a2 2 0 11-2 2 2 2 0 012-2zM6 14a2 2 0 112-2 2 2 0 01-2 2zm12 6a2 2 0 112-2 2 2 0 01-2 2z"/>
    </symbol>
    <symbol viewBox="0 0 24 24" id="time" xmlns="http://www.w3.org/2000/svg">
        <path fill-rule="evenodd"
              d="M5.114 6H8v2H2V1.991h2v2.265C6.237 1.911 8.787 1 12 1c6.075 0 11 4.925 11 11s-4.925 11-11 11S1 18.075 1 12h2a9 9 0 109-9c-2.84 0-4.955.791-6.886 3zM13 11h4v2h-6V6h2v5z"/>
    </symbol>
    <symbol viewBox="0 0 512 512" id="twitter" xmlns="http://www.w3.org/2000/svg">
        <path d="M459.37 151.716c.325 4.548.325 9.097.325 13.645 0 138.72-105.583 298.558-298.558 298.558-59.452 0-114.68-17.219-161.137-47.106 8.447.974 16.568 1.299 25.34 1.299 49.055 0 94.213-16.568 130.274-44.832-46.132-.975-84.792-31.188-98.112-72.772 6.498.974 12.995 1.624 19.818 1.624 9.421 0 18.843-1.3 27.614-3.573-48.081-9.747-84.143-51.98-84.143-102.985v-1.299c13.969 7.797 30.214 12.67 47.431 13.319-28.264-18.843-46.781-51.005-46.781-87.391 0-19.492 5.197-37.36 14.294-52.954 51.655 63.675 129.3 105.258 216.365 109.807-1.624-7.797-2.599-15.918-2.599-24.04 0-57.828 46.782-104.934 104.934-104.934 30.213 0 57.502 12.67 76.67 33.137 23.715-4.548 46.456-13.32 66.599-25.34-7.798 24.366-24.366 44.833-46.132 57.827 21.117-2.273 41.584-8.122 60.426-16.243-14.292 20.791-32.161 39.308-52.628 54.253z"/>
    </symbol>
</svg>