<?xml version="1.0" encoding="utf-8"?>
<!-- Svg Vector Icons : http://www.onlinewebfonts.com/icon -->
<!DOCTYPE svg PUBLIC "-//W3C//DTD SVG 1.1//EN" "http://www.w3.org/Graphics/SVG/1.1/DTD/svg11.dtd">
<svg xmlns:xlink="http://www.w3.org/1999/xlink" version="1.1" xmlns="http://www.w3.org/2000/svg" x="0px" y="0px"
     viewBox="0 0 1000 1000" enable-background="new 0 0 1000 1000" xml:space="preserve">
<metadata> Svg Vector Icons : http://www.onlinewebfonts.com/icon </metadata>
    <g><path d="M826.7,540.8c-45.1,0-81.7,36.5-81.7,81.7v163.3H540.8V214.2H990v326.7H826.7z M622.5,255h-40.8v81.7h40.8V255z M622.5,663.3h-40.8V745h40.8V663.3z M704.2,255h-40.8v81.7h40.8V255z M704.2,663.3h-40.8V745h40.8V663.3z M785.8,255H745v81.7h40.8V255z M867.5,255h-40.8v81.7h40.8V255z M949.2,255h-40.8v81.7h40.8V255z M10,91.7h530.8v81.7H10V91.7z M500,214.2v571.7H50.8V214.2H500z M540.8,908.3H10v-81.7h530.8V908.3z"/></g>
</svg>