<svg height="480pt" viewBox="0 0 480.10218 480" width="480pt" xmlns="http://www.w3.org/2000/svg">
    <path d="m456.097656.0507812c-10.132812.0429688-19.148437 6.4453128-22.527344 15.9999998h-169.472656v-8c0-4.417969-3.578125-7.9999998-8-7.9999998h-32c-4.417968 0-8 3.5820308-8 7.9999998v8h-169.46875c-3.898437-11.019531-15.167968-17.628906-26.6875-15.652343-11.519531 1.976562-19.941406 11.964843-19.941406 23.652343s8.421875 21.679688 19.941406 23.65625c11.519532 1.976563 22.789063-4.636719 26.6875-15.65625h169.46875v8c0 4.417969 3.582032 8 8 8h.800782l-79.390626 115.472657c-1.335937 1.945312-1.746093 4.378906-1.121093 6.65625l36.320312 132.085937h-1.945312c-17.964844.28125-32.382813 14.925781-32.382813 32.894531s14.417969 32.609375 32.382813 32.890625h4.449219v104c0 4.417969 3.582031 8 8 8h99.550781c4.421875 0 8-3.582031 8-8v-104h4.449219c17.964843-.28125 32.382812-14.921875 32.382812-32.890625s-14.417969-32.613281-32.382812-32.894531h-2.070313l34.695313-132.183594c.589843-2.246093.171874-4.640625-1.144532-6.558593l-79.390625-115.472657h.796875c4.421875 0 8-3.582031 8-8v-8h169.472656c4.089844 11.476563 16.140626 18.058594 28.003907 15.296875 11.867187-2.761718 19.769531-13.988281 18.367187-26.09375-1.398437-12.101562-11.660156-21.222656-23.84375-21.2031248zm-432 31.9999998c-4.417968 0-8-3.582031-8-8s3.582032-8 8-8c4.421875 0 8 3.582031 8 8s-3.578125 8-8 8zm208-16h16v16h-16zm8 153.785157c8.839844 0 16 7.164062 16 16 0 8.835937-7.160156 16-16 16-8.835937 0-16-7.164063-16-16 0-8.835938 7.164063-16 16-16zm42.664063 294.214843h-83.550781v-96h83.550781zm20.449219-145.785156c9.1875.203125 16.527343 7.707031 16.527343 16.894531s-7.339843 16.691406-16.527343 16.890625h-124.449219c-9.183594-.199219-16.527344-7.703125-16.527344-16.890625s7.34375-16.691406 16.527344-16.894531zm16.222656-148.703125-34.839844 132.703125h-87.285156l-36.511719-132.742187 71.300781-103.71875v89.167968c-15.601562 4.027344-25.773437 19.027344-23.742187 35.015625 2.03125 15.984375 15.628906 27.964844 31.742187 27.964844 16.117188 0 29.714844-11.980469 31.746094-27.964844 2.03125-15.988281-8.140625-30.988281-23.746094-35.015625v-89.167968zm136.664062-137.511719c-4.417968 0-8-3.582031-8-8s3.582032-8 8-8c4.421875 0 8 3.582031 8 8s-3.578125 8-8 8zm0 0"/>
</svg>