<svg height="681pt" viewBox="-93 -21 681 681.33383" width="681pt" xmlns="http://www.w3.org/2000/svg">
    <path d="m468.675781 240.394531c-13.519531-12.613281-32.058593-19.5625-52.199219-19.5625-13.167968 0-25.632812 3.957031-36.320312 10.757813-13.039062-16.425782-33.082031-26.976563-55.539062-26.976563-1.171876 0-2.328126.035157-3.484376.089844l29.859376-114.828125c10.316406-37.730469-11.917969-76.851562-49.640626-87.285156-18.261718-5.050782-37.433593-2.6640628-53.984374 6.722656-16.5625 9.382812-28.457032 24.605469-33.503907 42.859375-.050781.167969-.09375.332031-.132812.5l-37.609375 147.828125-40.113282-148.195312c-.011718-.042969-.027343-.085938-.035156-.132813-10.453125-37.789063-49.703125-60.035156-87.492187-49.582031-37.785157 10.453125-60.03125 49.695312-49.613281 87.375l64.5625 237.851562c-2.679688 2.832032-5.15625 5.886719-7.398438 9.15625l-.765625 1.121094-49.253906 91.988281c-14.941407 26.386719-14.1875 54.476563 2.25 83.511719 6.164062 11.78125 36.898437 68.355469 74.246093 100.570312 18.375 15.859376 41.871094 24.585938 66.144532 24.585938h200.457031c77.984375 0 141.425781-63 141.425781-140.4375v-206.105469c0-20.253906-7.761718-38.65625-21.859375-51.8125zm-122.851562 35.855469v44.382812c0 11.695313-9.511719 21.207032-21.207031 21.207032-11.691407 0-21.210938-9.511719-21.210938-21.207032v-44.382812c0-11.980469 9.519531-21.734375 21.210938-21.734375 11.695312 0 21.207031 9.753906 21.207031 21.734375zm-83.808594-210.976562c1.523437-5.320313 5.050781-9.769532 9.953125-12.550782 4.960938-2.808594 10.667969-3.535156 16.078125-2.039062 11.273437 3.117187 17.910156 14.824218 14.792969 26.09375-.035156.125-.070313.25-.097656.371094l-59.597657 229.207031c-5.496093-1.261719-11.140625-1.9375-16.820312-1.9375h-25.148438zm-200.234375-14.585938c11.257812-3.109375 22.945312 3.5 26.082031 14.742188l64.6875 238.988281h-34.765625c-2.984375 0-5.9375.183593-8.859375.527343l-61.929687-228.167968c-3.121094-11.269532 3.519531-22.976563 14.785156-26.089844zm-53.410156 463.097656c.042968.078125.089844.160156.136718.238282-.015624-.027344-.070312-.113282-.136718-.238282zm340.738281 75.066406h-200.457031c-12.316406 0-24.230469-4.429687-33.546875-12.46875-25.527344-22.019531-51.453125-64.519531-62.75-86.15625-.3125-.597656-.5-.921874-.519531-.957031-9.230469-16.15625-7.726563-25.273437-2.3125-34.753906l48.339843-90.261719c4.703125-6.242187 12.066407-9.9375 19.925781-9.9375h108.535157c6.992187 0 13.839843 2.898438 18.792969 7.949219 4.730468 4.8125 7.257812 11.027344 7.136718 17.5-.257812 13.484375-11.449218 24.453125-24.945312 24.453125h-90.933594l-27.289062 52.097656 44.199218 23.15625 13.28125-25.351562h60.742188c19.738281 0 38.367187-7.617188 52.449218-21.445313 12.335938-12.117187 19.960938-27.796875 21.90625-44.753906 7.207032 2.46875 14.925782 3.820313 22.957032 3.820313 17.792968 0 34.066406-6.582032 46.550781-17.421876 12.65625 10.847657 29.078125 17.421876 47.011719 17.421876 7.839844 0 15.386718-1.265626 22.457031-3.585938v110.15625c0 49.925781-41.0625 90.539062-91.53125 90.539062zm69.074219-247.011718c-12.382813 0-22.457032-10.070313-22.457032-22.453125v-25.484375c0-10.941406 8.875-23.167969 20.75-23.167969 11.683594 0 24.164063 5.640625 24.164063 21.472656v27.179688c0 12.382812-10.074219 22.453125-22.457031 22.453125zm0 0"/>
</svg>