<?xml version="1.0" encoding="utf-8"?>
<svg xmlns:xlink="http://www.w3.org/1999/xlink" xmlns="http://www.w3.org/2000/svg">
    <symbol viewBox="0 0 24 24" id="angle-double-up" xmlns="http://www.w3.org/2000/svg">
        <path d="M12.71 12.54a1 1 0 00-1.42 0l-3 3A1 1 0 009.71 17L12 14.66 14.29 17a1 1 0 001.42 0 1 1 0 000-1.42zm-3-1.08L12 9.16l2.29 2.3a1 1 0 001.42 0 1 1 0 000-1.42l-3-3a1 1 0 00-1.42 0l-3 3a1 1 0 001.42 1.42z"/>
    </symbol>
    <symbol viewBox="0 0 320 512" id="angle-up" xmlns="http://www.w3.org/2000/svg">
        <path d="M177 159.7l136 136c9.4 9.4 9.4 24.6 0 33.9l-22.6 22.6c-9.4 9.4-24.6 9.4-33.9 0L160 255.9l-96.4 96.4c-9.4 9.4-24.6 9.4-33.9 0L7 329.7c-9.4-9.4-9.4-24.6 0-33.9l136-136c9.4-9.5 24.6-9.5 34-.1z"/>
    </symbol>
    <symbol viewBox="0 0 24 24" id="arrows-v" xmlns="http://www.w3.org/2000/svg">
        <path d="M15.29 16.29L13 18.59V5.41l2.29 2.3a1 1 0 001.42 0 1 1 0 000-1.42l-4-4a1 1 0 00-.33-.21 1 1 0 00-.76 0 1 1 0 00-.33.21l-4 4a1 1 0 101.42 1.42L11 5.41v13.18l-2.29-2.3a1 1 0 10-1.42 1.42l4 4a1 1 0 00.33.21.94.94 0 00.76 0 1 1 0 00.33-.21l4-4a1 1 0 00-1.42-1.42z"/>
    </symbol>
    <symbol viewBox="0 0 56.69 56.69" id="behance" xmlns="http://www.w3.org/2000/svg">
        <path d="M23.641 26.71s4.615-.344 4.615-5.756c0-5.413-3.774-8.054-8.56-8.054H3.958v30.248h15.739s9.61.305 9.61-8.926c0 .001.42-7.512-5.666-7.512zm-12.749-8.433h8.805s2.141 0 2.141 3.146-1.26 3.604-2.686 3.604h-8.26v-6.75zm8.36 19.495h-8.36V29.69h8.805s3.189-.042 3.189 4.152c0 3.54-2.381 3.902-3.634 3.93zM42.12 20.596c-11.631 0-11.62 11.622-11.62 11.622s-.798 11.563 11.622 11.563c0 0 10.351.59 10.351-8.044H47.15s.176 3.252-4.85 3.252c0 0-5.326.356-5.326-5.263H52.65c0 .001 1.714-13.13-10.53-13.13zm-5.203 9.094s.65-4.664 5.322-4.664c4.673 0 4.614 4.664 4.614 4.664h-9.936zm11.176-11.282H35.614v-3.726h12.479v3.726z"/>
    </symbol>
    <symbol viewBox="0 0 24 24" id="box" xmlns="http://www.w3.org/2000/svg">
        <path d="M20.49 7.52a.19.19 0 010-.08.17.17 0 010-.07v-.09l-.06-.15a.48.48 0 00-.09-.11l-.09-.08h-.05l-3.94-2.49-3.72-2.3a.85.85 0 00-.29-.15h-.08a.82.82 0 00-.27 0h-.1a1.13 1.13 0 00-.33.13L4 6.78l-.09.07-.09.08-.1.07-.05.06-.06.15v.15a.69.69 0 000 .2v8.73a1 1 0 00.47.85l7.5 4.64.15.06h.08a.86.86 0 00.52 0h.08l.15-.06L20 17.21a1 1 0 00.47-.85V7.63s.02-.07.02-.11zM12 4.17l1.78 1.1-5.59 3.46-1.79-1.1zm-1 15l-5.5-3.36V9.42l5.5 3.4zm1-8.11l-1.91-1.15 5.59-3.47 1.92 1.19zm6.5 4.72L13 19.2v-6.38l5.5-3.4z"/>
    </symbol>
    <symbol viewBox="0 0 24 24" id="clock-nine" xmlns="http://www.w3.org/2000/svg">
        <path d="M11 2a10 10 0 1010 10A10 10 0 0011 2zm0 18a8 8 0 118-8 8 8 0 01-8 8zm0-14a1 1 0 00-1 1v4H8a1 1 0 000 2h3a1 1 0 001-1V7a1 1 0 00-1-1z"/>
    </symbol>
    <symbol viewBox="0 0 640 512" id="coffee" xmlns="http://www.w3.org/2000/svg">
        <path d="M192 384h192c53 0 96-43 96-96h32c70.6 0 128-57.4 128-128S582.6 32 512 32H120c-13.3 0-24 10.7-24 24v232c0 53 43 96 96 96zM512 96c35.3 0 64 28.7 64 64s-28.7 64-64 64h-32V96h32zm47.7 384H48.3c-47.6 0-61-64-36-64h583.3c25 0 11.8 64-35.9 64z"/>
    </symbol>
    <symbol viewBox="0 0 512 512" id="comment" xmlns="http://www.w3.org/2000/svg">
        <path d="M256 32C114.6 32 0 125.1 0 240c0 49.6 21.4 95 57 130.7C44.5 421.1 2.7 466 2.2 466.5c-2.2 2.3-2.8 5.7-1.5 8.7S4.8 480 8 480c66.3 0 116-31.8 140.6-51.4 32.7 12.3 69 19.4 107.4 19.4 141.4 0 256-93.1 256-208S397.4 32 256 32z"/>
    </symbol>
    <symbol viewBox="0 0 576 512" id="comments" xmlns="http://www.w3.org/2000/svg">
        <path d="M416 192c0-88.4-93.1-160-208-160S0 103.6 0 192c0 34.3 14.1 65.9 38 92-13.4 30.2-35.5 54.2-35.8 54.5-2.2 2.3-2.8 5.7-1.5 8.7S4.8 352 8 352c36.6 0 66.9-12.3 88.7-25 32.2 15.7 70.3 25 111.3 25 114.9 0 208-71.6 208-160zm122 220c23.9-26 38-57.7 38-92 0-66.9-53.5-124.2-129.3-148.1.9 6.6 1.3 13.3 1.3 20.1 0 105.9-107.7 192-240 192-10.8 0-21.3-.8-31.7-1.9C207.8 439.6 281.8 480 368 480c41 0 79.1-9.2 111.3-25 21.8 12.7 52.1 25 88.7 25 3.2 0 6.1-1.9 7.3-4.8 1.3-2.9.7-6.3-1.5-8.7-.3-.3-22.4-24.2-35.8-54.5z"/>
    </symbol>
    <symbol viewBox="0 0 512.007 512.007" id="diamond" xmlns="http://www.w3.org/2000/svg">
        <path d="M510.025 139.609l-85.333-102.4a8.547 8.547 0 00-6.554-3.063H93.871a8.524 8.524 0 00-6.554 3.063l-85.333 102.4a8.512 8.512 0 00-1.178 9.079 8.55 8.55 0 007.731 4.915H503.47a8.55 8.55 0 007.731-4.915 8.53 8.53 0 00-1.176-9.079zm-483.268-3.072l71.108-85.333h316.271l71.108 85.333H26.757z"/>
        <path d="M263.898 39.402a8.535 8.535 0 00-7.885-5.265H93.88c-3.055 0-5.871 1.63-7.398 4.284s-1.519 5.905.026 8.55l59.733 102.4a8.541 8.541 0 006.272 4.164c.367.043.734.068 1.092.068a8.539 8.539 0 006.042-2.5l102.4-102.4a8.532 8.532 0 001.851-9.301zm-108.501 91.81l-46.669-80.008h126.677l-80.008 80.008z"/>
        <path d="M511.109 141.281a8.527 8.527 0 00-7.646-4.753H8.53a8.536 8.536 0 00-7.646 4.753 8.537 8.537 0 00.87 8.96l247.467 324.267c1.613 2.116 4.122 3.362 6.784 3.362s5.171-1.246 6.767-3.362l247.467-324.267a8.54 8.54 0 00.87-8.96zM256.005 455.274L25.784 153.604h460.442l-230.221 301.67z"/>
        <path d="M264.146 466.76l-102.4-324.267a8.538 8.538 0 00-8.141-5.965H8.538a8.536 8.536 0 00-7.646 4.753 8.537 8.537 0 00.87 8.96l247.467 324.267a8.517 8.517 0 006.784 3.362 8.297 8.297 0 003.925-.973 8.53 8.53 0 004.208-10.137zM25.784 153.604H147.35l85.811 271.736L25.784 153.604zM425.537 38.421a8.52 8.52 0 00-7.398-4.284H256.005a8.53 8.53 0 00-6.033 14.566l102.4 102.4a8.503 8.503 0 006.033 2.5c.367 0 .734-.026 1.101-.068a8.531 8.531 0 006.272-4.164l59.733-102.4a8.55 8.55 0 00.026-8.55zm-68.924 92.791l-80.009-80.008h126.677l-46.668 80.008z"/>
        <path d="M511.126 141.299a8.527 8.527 0 00-7.646-4.753H358.413a8.53 8.53 0 00-8.141 5.965l-102.4 324.267a8.539 8.539 0 004.207 10.138 8.493 8.493 0 003.925.956 8.574 8.574 0 006.784-3.345L510.255 150.26a8.54 8.54 0 00.871-8.961zm-232.277 284.04l85.811-271.736h121.566L278.849 425.339z"/>
    </symbol>
    <symbol viewBox="0 0 512 512" id="dribbble" xmlns="http://www.w3.org/2000/svg">
        <path d="M256 8C119.252 8 8 119.252 8 256s111.252 248 248 248 248-111.252 248-248S392.748 8 256 8zm163.97 114.366c29.503 36.046 47.369 81.957 47.835 131.955-6.984-1.477-77.018-15.682-147.502-6.818-5.752-14.041-11.181-26.393-18.617-41.614 78.321-31.977 113.818-77.482 118.284-83.523zM396.421 97.87c-3.81 5.427-35.697 48.286-111.021 76.519-34.712-63.776-73.185-116.168-79.04-124.008 67.176-16.193 137.966 1.27 190.061 47.489zm-230.48-33.25c5.585 7.659 43.438 60.116 78.537 122.509-99.087 26.313-186.36 25.934-195.834 25.809C62.38 147.205 106.678 92.573 165.941 64.62zM44.17 256.323c0-2.166.043-4.322.108-6.473 9.268.19 111.92 1.513 217.706-30.146 6.064 11.868 11.857 23.915 17.174 35.949-76.599 21.575-146.194 83.527-180.531 142.306C64.794 360.405 44.17 310.73 44.17 256.323zm81.807 167.113c22.127-45.233 82.178-103.622 167.579-132.756 29.74 77.283 42.039 142.053 45.189 160.638-68.112 29.013-150.015 21.053-212.768-27.882zm248.38 8.489c-2.171-12.886-13.446-74.897-41.152-151.033 66.38-10.626 124.7 6.768 131.947 9.055-9.442 58.941-43.273 109.844-90.795 141.978z"/>
    </symbol>
    <symbol viewBox="0 0 512 512" id="envelope" xmlns="http://www.w3.org/2000/svg">
        <path d="M464 64H48C21.49 64 0 85.49 0 112v288c0 26.51 21.49 48 48 48h416c26.51 0 48-21.49 48-48V112c0-26.51-21.49-48-48-48zm0 48v40.805c-22.422 18.259-58.168 46.651-134.587 106.49-16.841 13.247-50.201 45.072-73.413 44.701-23.208.375-56.579-31.459-73.413-44.701C106.18 199.465 70.425 171.067 48 152.805V112h416zM48 400V214.398c22.914 18.251 55.409 43.862 104.938 82.646 21.857 17.205 60.134 55.186 103.062 54.955 42.717.231 80.509-37.199 103.053-54.947 49.528-38.783 82.032-64.401 104.947-82.653V400H48z"/>
    </symbol>
    <symbol viewBox="0 0 264 512" id="facebook-f" xmlns="http://www.w3.org/2000/svg">
        <path d="M215.8 85H264V3.6C255.7 2.5 227.1 0 193.8 0 124.3 0 76.7 42.4 76.7 120.3V192H0v91h76.7v229h94V283h73.6l11.7-91h-85.3v-62.7c0-26.3 7.3-44.3 45.1-44.3z"/>
    </symbol>
    <symbol viewBox="0 0 1000 1000" id="film-strip" xmlns="http://www.w3.org/2000/svg">
        <path d="M826.7 540.8c-45.1 0-81.7 36.5-81.7 81.7v163.3H540.8V214.2H990v326.7H826.7zM622.5 255h-40.8v81.7h40.8V255zm0 408.3h-40.8V745h40.8v-81.7zM704.2 255h-40.8v81.7h40.8V255zm0 408.3h-40.8V745h40.8v-81.7zM785.8 255H745v81.7h40.8V255zm81.7 0h-40.8v81.7h40.8V255zm81.7 0h-40.8v81.7h40.8V255zM10 91.7h530.8v81.7H10V91.7zm490 122.5v571.7H50.8V214.2H500zm40.8 694.1H10v-81.7h530.8v81.7z"/>
    </symbol>
    <symbol viewBox="0 0 640 512" id="google-plus-g" xmlns="http://www.w3.org/2000/svg">
        <path d="M386.061 228.496c1.834 9.692 3.143 19.384 3.143 31.956C389.204 370.205 315.599 448 204.8 448c-106.084 0-192-85.915-192-192s85.916-192 192-192c51.864 0 95.083 18.859 128.611 50.292l-52.126 50.03c-14.145-13.621-39.028-29.599-76.485-29.599-65.484 0-118.92 54.221-118.92 121.277 0 67.056 53.436 121.277 118.92 121.277 75.961 0 104.513-54.745 108.965-82.773H204.8v-66.009h181.261zm185.406 6.437V179.2h-56.001v55.733h-55.733v56.001h55.733v55.733h56.001v-55.733H627.2v-56.001h-55.733z"/>
    </symbol>
    <symbol viewBox="0 0 295.996 295.996" id="happiness" xmlns="http://www.w3.org/2000/svg">
        <path d="M147.998 0C66.392 0 0 66.392 0 147.998s66.392 147.998 147.998 147.998 147.998-66.392 147.998-147.998S229.605 0 147.998 0zm0 279.996c-36.256 0-69.143-14.696-93.022-38.44a132.713 132.713 0 01-23.934-32.42C21.442 190.847 16 170.047 16 147.998 16 75.214 75.214 16 147.998 16c34.523 0 65.987 13.328 89.533 35.102 12.208 11.288 22.289 24.844 29.558 39.996 8.27 17.239 12.907 36.538 12.907 56.9 0 72.784-59.214 131.998-131.998 131.998z"/>
        <circle cx="99.666" cy="114.998" r="16"/>
        <circle cx="198.666" cy="114.998" r="16"/>
        <path d="M147.715 229.995c30.954 0 60.619-15.83 77.604-42.113l-13.439-8.684c-15.597 24.135-44.126 37.604-72.693 34.308-22.262-2.567-42.849-15.393-55.072-34.308l-13.438 8.684c14.79 22.889 39.716 38.409 66.676 41.519 3.461.399 6.917.594 10.362.594z"/>
    </symbol>
    <symbol viewBox="0 0 512 512" id="heart" xmlns="http://www.w3.org/2000/svg">
        <path d="M462.3 62.6C407.5 15.9 326 24.3 275.7 76.2L256 96.5l-19.7-20.3C186.1 24.3 104.5 15.9 49.7 62.6c-62.8 53.6-66.1 149.8-9.9 207.9l193.5 199.8c12.5 12.9 32.8 12.9 45.3 0l193.5-199.8c56.3-58.1 53-154.3-9.8-207.9z"/>
    </symbol>
    <symbol viewBox="0 0 384 512" id="hourglass-start" xmlns="http://www.w3.org/2000/svg">
        <path d="M360 0H24C10.745 0 0 10.745 0 24v16c0 13.255 10.745 24 24 24 0 90.965 51.016 167.734 120.842 192C75.016 280.266 24 357.035 24 448c-13.255 0-24 10.745-24 24v16c0 13.255 10.745 24 24 24h336c13.255 0 24-10.745 24-24v-16c0-13.255-10.745-24-24-24 0-90.965-51.016-167.734-120.842-192C308.984 231.734 360 154.965 360 64c13.255 0 24-10.745 24-24V24c0-13.255-10.745-24-24-24zm-64 448H88c0-77.458 46.204-144 104-144 57.786 0 104 66.517 104 144z"/>
    </symbol>
    <symbol viewBox="0 0 448 512" id="instagram" xmlns="http://www.w3.org/2000/svg">
        <path d="M224.1 141c-63.6 0-114.9 51.3-114.9 114.9s51.3 114.9 114.9 114.9S339 319.5 339 255.9 287.7 141 224.1 141zm0 189.6c-41.1 0-74.7-33.5-74.7-74.7s33.5-74.7 74.7-74.7 74.7 33.5 74.7 74.7-33.6 74.7-74.7 74.7zm146.4-194.3c0 14.9-12 26.8-26.8 26.8-14.9 0-26.8-12-26.8-26.8s12-26.8 26.8-26.8 26.8 12 26.8 26.8zm76.1 27.2c-1.7-35.9-9.9-67.7-36.2-93.9-26.2-26.2-58-34.4-93.9-36.2-37-2.1-147.9-2.1-184.9 0-35.8 1.7-67.6 9.9-93.9 36.1s-34.4 58-36.2 93.9c-2.1 37-2.1 147.9 0 184.9 1.7 35.9 9.9 67.7 36.2 93.9s58 34.4 93.9 36.2c37 2.1 147.9 2.1 184.9 0 35.9-1.7 67.7-9.9 93.9-36.2 26.2-26.2 34.4-58 36.2-93.9 2.1-37 2.1-147.8 0-184.8zM398.8 388c-7.8 19.6-22.9 34.7-42.6 42.6-29.5 11.7-99.5 9-132.1 9s-102.7 2.6-132.1-9c-19.6-7.8-34.7-22.9-42.6-42.6-11.7-29.5-9-99.5-9-132.1s-2.6-102.7 9-132.1c7.8-19.6 22.9-34.7 42.6-42.6 29.5-11.7 99.5-9 132.1-9s102.7-2.6 132.1 9c19.6 7.8 34.7 22.9 42.6 42.6 11.7 29.5 9 99.5 9 132.1s2.7 102.7-9 132.1z"/>
    </symbol>
    <symbol viewBox="0 0 640 512" id="laptop" xmlns="http://www.w3.org/2000/svg">
        <path d="M624 416H381.54c-.74 19.81-14.71 32-32.74 32H288c-18.69 0-33.02-17.47-32.77-32H16c-8.8 0-16 7.2-16 16v16c0 35.2 28.8 64 64 64h512c35.2 0 64-28.8 64-64v-16c0-8.8-7.2-16-16-16zM576 48c0-26.4-21.6-48-48-48H112C85.6 0 64 21.6 64 48v336h512V48zm-64 272H128V64h384v256z"/>
    </symbol>
    <symbol viewBox="0 0 448.1 512" id="linkedin-in" xmlns="http://www.w3.org/2000/svg">
        <path d="M100.3 448H7.4V148.9h92.9V448zM53.8 108.1C24.1 108.1 0 83.5 0 53.8S24.1 0 53.8 0s53.8 24.1 53.8 53.8-24.1 54.3-53.8 54.3zM448 448h-92.7V302.4c0-34.7-.7-79.2-48.3-79.2-48.3 0-55.7 37.7-55.7 76.7V448h-92.8V148.9h89.1v40.8h1.3c12.4-23.5 42.7-48.3 87.9-48.3 94 0 111.3 61.9 111.3 142.3V448h-.1z"/>
    </symbol>
    <symbol viewBox="0 0 512 512" id="paper-plane" xmlns="http://www.w3.org/2000/svg">
        <path d="M440 6.5L24 246.4c-34.4 19.9-31.1 70.8 5.7 85.9L144 379.6V464c0 46.4 59.2 65.5 86.6 28.6l43.8-59.1 111.9 46.2c5.9 2.4 12.1 3.6 18.3 3.6 8.2 0 16.3-2.1 23.6-6.2 12.8-7.2 21.6-20 23.9-34.5l59.4-387.2c6.1-40.1-36.9-68.8-71.5-48.9zM192 464v-64.6l36.6 15.1L192 464zm212.6-28.7l-153.8-63.5L391 169.5c10.7-15.5-9.5-33.5-23.7-21.2L155.8 332.6 48 288 464 48l-59.4 387.3z"/>
    </symbol>
    <symbol viewBox="0 0 480.102 480" id="pen" xmlns="http://www.w3.org/2000/svg">
        <path d="M456.098.05a24.003 24.003 0 00-22.528 16H264.098v-8c0-4.417-3.578-8-8-8h-32a8 8 0 00-8 8v8H46.628C42.73 5.032 31.462-1.577 19.942.399 8.421 2.375 0 12.363 0 24.051s8.422 21.68 19.941 23.656c11.52 1.977 22.79-4.637 26.688-15.656h169.469v8a8 8 0 008 8h.8l-79.39 115.472a8.01 8.01 0 00-1.121 6.657l36.32 132.086h-1.945c-17.965.28-32.383 14.925-32.383 32.894s14.418 32.61 32.383 32.89h4.449v104a8 8 0 008 8h99.55c4.423 0 8-3.581 8-8v-104h4.45c17.965-.28 32.383-14.921 32.383-32.89s-14.418-32.613-32.383-32.894h-2.07l34.695-132.184a8.001 8.001 0 00-1.145-6.559l-79.39-115.472h.797c4.422 0 8-3.582 8-8v-8H433.57c4.09 11.476 16.14 18.058 28.004 15.297 11.867-2.762 19.77-13.989 18.367-26.094C478.543 9.152 468.281.03 456.098.05zm-432 32a8 8 0 110-16 8 8 0 010 16zm208-16h16v16h-16zm8 153.786c8.84 0 16 7.164 16 16s-7.16 16-16 16c-8.836 0-16-7.164-16-16s7.164-16 16-16zm42.664 294.215H199.21v-96h83.55zm20.449-145.785c9.187.203 16.527 7.707 16.527 16.894s-7.34 16.692-16.527 16.89H178.76c-9.183-.198-16.527-7.702-16.527-16.89s7.344-16.691 16.528-16.894zm16.223-148.704l-34.84 132.704h-87.285l-36.512-132.743 71.3-103.718v89.168c-15.6 4.027-25.773 19.027-23.742 35.015 2.032 15.985 15.63 27.965 31.743 27.965 16.117 0 29.714-11.98 31.746-27.965 2.031-15.988-8.14-30.988-23.746-35.015V65.805zm136.664-137.51a8 8 0 110-16.001 8 8 0 010 16zm0 0"/>
    </symbol>
    <symbol viewBox="0 0 16 16" id="phone" xmlns="http://www.w3.org/2000/svg">
        <path d="M12.2 10c-1.1-.1-1.7 1.4-2.5 1.8C8.4 12.5 6 10 6 10S3.5 7.6 4.1 6.3c.5-.8 2-1.4 1.9-2.5-.1-1-2.3-4.6-3.4-3.6C.2 2.4 0 3.3 0 5.1c-.1 3.1 3.9 7 3.9 7 .4.4 3.9 4 7 3.9 1.8 0 2.7-.2 4.9-2.6 1-1.1-2.5-3.3-3.6-3.4z"/>
    </symbol>
    <symbol viewBox="0 0 512 512" id="screen" xmlns="http://www.w3.org/2000/svg">
        <path d="M512 392.115V37.389H0v354.726h207.372v52.496h-58.517v30h214.29v-30h-58.517v-52.496H512zm-237.372 52.496h-37.256v-52.496h37.256v52.496zM30 362.115V67.389h452v294.726H30z"/>
        <path d="M331.336 252.739L196.899 107.691v204.043l47.415-40.096 13.557 35.14 27.989-10.798-14.135-36.64 59.611-6.601zm-86.809-20.57l-17.628 14.907v-62.884l41.968 45.282-24.34 2.695z"/>
    </symbol>
    <symbol viewBox="0 0 24 24" id="search" xmlns="http://www.w3.org/2000/svg">
        <path d="M21.71 20.29L18 16.61A9 9 0 1016.61 18l3.68 3.68a1 1 0 001.42 0 1 1 0 000-1.39zM11 18a7 7 0 117-7 7 7 0 01-7 7z"/>
    </symbol>
    <symbol viewBox="0 0 512 512" id="search-form" xmlns="http://www.w3.org/2000/svg">
        <path d="M505 442.7L405.3 343c-4.5-4.5-10.6-7-17-7H372c27.6-35.3 44-79.7 44-128C416 93.1 322.9 0 208 0S0 93.1 0 208s93.1 208 208 208c48.3 0 92.7-16.4 128-44v16.3c0 6.4 2.5 12.5 7 17l99.7 99.7c9.4 9.4 24.6 9.4 33.9 0l28.3-28.3c9.4-9.4 9.4-24.6.1-34zM208 336c-70.7 0-128-57.2-128-128 0-70.7 57.2-128 128-128 70.7 0 128 57.2 128 128 0 70.7-57.2 128-128 128z"/>
    </symbol>
    <symbol viewBox="0 0 32 32" id="stack-overflow" xmlns="http://www.w3.org/2000/svg">
        <path d="M19.594 2.844l-1.625 1.125 5.593 8.219 1.625-1.126zM15.375 6.53l-1.313 1.5 7.5 6.5 1.313-1.5zm-3 4.375l-.906 1.781 8.844 4.5.906-1.78zm-1.719 4.531l-.437 1.938 9.656 2.281.438-1.937zM6 18v11h18V18h-2v9H8v-9zm4.094 1.688l-.125 2 9.906.562.125-2zM10 23v2h9.938v-2z"/>
    </symbol>
    <symbol viewBox="0 0 434.407 434.407" id="tap" xmlns="http://www.w3.org/2000/svg">
        <path d="M339.204 200.951c-4.623 0-9.071.76-13.228 2.161-5.117-17.12-21.011-29.635-39.772-29.635-4.887 0-9.576.855-13.934 2.414-5.755-16.018-21.092-27.507-39.066-27.507-3.99 0-7.845.578-11.5 1.633V126.5c0-22.883-18.617-41.5-41.5-41.5s-41.5 18.617-41.5 41.5v87.36a41.36 41.36 0 00-11.5-1.633c-22.883 0-41.5 18.617-41.5 41.5v77.851c0 56.7 46.129 102.829 102.829 102.829h89.343c56.699 0 102.828-46.129 102.828-102.829v-89.126c0-22.884-18.617-41.501-41.5-41.501zm11.5 130.627c0 40.158-32.671 72.829-72.828 72.829h-89.343c-40.158 0-72.829-32.671-72.829-72.829v-77.851c0-6.341 5.159-11.5 11.5-11.5s11.5 5.159 11.5 11.5v60.571h30V126.5c0-6.341 5.159-11.5 11.5-11.5s11.5 5.159 11.5 11.5v115.951h30v-52.567c0-6.341 5.159-11.5 11.5-11.5s11.5 5.159 11.5 11.5v52.567h30v-27.474c0-6.341 5.159-11.5 11.5-11.5s11.5 5.159 11.5 11.5v27.474h30c0-6.341 5.159-11.5 11.5-11.5s11.5 5.159 11.5 11.5v89.127zm-297-220.078h50v30h-50zM165.204 0h30v50h-30zm-63.845 26.445l35.354 35.354L115.5 83.012 80.146 47.658l21.213-21.213z"/>
    </symbol>
    <symbol viewBox="0 0 64 64" id="taurus" xmlns="http://www.w3.org/2000/svg">
        <path d="M54 11h-4.043a7.992 7.992 0 00-7.354 4.849l-2.883 6.726A3.995 3.995 0 0136.043 25h-8.087a3.998 3.998 0 01-3.677-2.424l-2.883-6.727A7.99 7.99 0 0014.043 11H10a2 2 0 000 4h4.043c1.602 0 3.045.952 3.677 2.424l2.883 6.727a7.979 7.979 0 003.088 3.607C20.247 30.311 18 34.393 18 39c0 7.72 6.28 14 14 14s14-6.28 14-14c0-4.607-2.247-8.689-5.691-11.242a7.979 7.979 0 003.088-3.607l2.883-6.726A3.995 3.995 0 0149.957 15H54a2 2 0 000-4zM42 39c0 5.514-4.486 10-10 10s-10-4.486-10-10 4.486-10 10-10 10 4.486 10 10z"/>
    </symbol>
    <symbol viewBox="0 0 512 512" id="twitter" xmlns="http://www.w3.org/2000/svg">
        <path d="M459.37 151.716c.325 4.548.325 9.097.325 13.645 0 138.72-105.583 298.558-298.558 298.558-59.452 0-114.68-17.219-161.137-47.106 8.447.974 16.568 1.299 25.34 1.299 49.055 0 94.213-16.568 130.274-44.832-46.132-.975-84.792-31.188-98.112-72.772 6.498.974 12.995 1.624 19.818 1.624 9.421 0 18.843-1.3 27.614-3.573-48.081-9.747-84.143-51.98-84.143-102.985v-1.299c13.969 7.797 30.214 12.67 47.431 13.319-28.264-18.843-46.781-51.005-46.781-87.391 0-19.492 5.197-37.36 14.294-52.954 51.655 63.675 129.3 105.258 216.365 109.807-1.624-7.797-2.599-15.918-2.599-24.04 0-57.828 46.782-104.934 104.934-104.934 30.213 0 57.502 12.67 76.67 33.137 23.715-4.548 46.456-13.32 66.599-25.34-7.798 24.366-24.366 44.833-46.132 57.827 21.117-2.273 41.584-8.122 60.426-16.243-14.292 20.791-32.161 39.308-52.628 54.253z"/>
    </symbol>
    <symbol viewBox="0 0 512 512" id="ufo" xmlns="http://www.w3.org/2000/svg">
        <path d="M466.193 120.123c-25.557-12.947-60.728-23.232-101.968-29.852C354.901 39 309.921 0 256 0c-53.921 0-98.901 39-108.224 90.271-41.233 6.618-76.398 16.901-101.952 29.844C7.95 139.296.001 160.021.001 174.03c0 26.928 27.28 50.251 78.891 67.448 15.454 5.149 32.554 9.54 50.883 13.127 12.842 20.194 30.44 37.14 51.139 49.189 22.707 13.218 48.672 20.205 75.087 20.205 26.415 0 52.38-6.987 75.088-20.205 20.698-12.049 38.296-28.995 51.139-49.189 18.329-3.587 35.429-7.978 50.883-13.127 51.61-17.197 78.891-40.521 78.891-67.448-.004-14.006-7.952-34.728-45.809-53.907zm-300.194-10.124C166 60.374 206.374 20 256 20c49.626 0 90 40.374 90 89.999v35.243a8.533 8.533 0 01-6.31 8.227c-54.751 14.702-112.629 14.703-167.38 0a8.533 8.533 0 01-6.31-8.227v-35.243zM256 303.998c-37.632 0-73.345-16.67-97.725-44.608 30.542 4.33 63.627 6.608 97.725 6.608 34.099 0 67.184-2.277 97.725-6.608-24.382 27.938-60.094 44.608-97.725 44.608zm170.786-81.495c-15.641 5.212-33.079 9.618-51.858 13.156-.494.055-.983.14-1.462.268-35.461 6.573-75.62 10.072-117.466 10.072-41.848 0-82.01-3.499-117.47-10.072-.475-.126-.96-.21-1.449-.265-18.782-3.539-36.223-7.945-51.867-13.158-40.834-13.606-65.213-31.727-65.213-48.474 0-20.542 39.525-48.552 125.999-63.197v34.409c0 12.877 8.686 24.203 21.122 27.542a342.782 342.782 0 0088.877 11.71 342.77 342.77 0 0088.877-11.71c12.437-3.34 21.122-14.666 21.122-27.542v-34.409c86.476 14.645 125.999 42.656 125.999 63.197.002 16.746-24.377 34.867-65.211 48.473zm23.558 93.055c-16.542 0-30 13.458-30 30s13.458 30 30 30 30-13.458 30-30-13.458-30-30-30zm0 40c-5.514 0-10-4.486-10-10s4.486-10 10-10 10 4.486 10 10-4.486 10-10 10z"/>
        <path d="M263.069 209.929a10.073 10.073 0 00-7.069-2.93c-2.63 0-5.21 1.07-7.07 2.93s-2.93 4.44-2.93 7.07 1.069 5.21 2.93 7.07a10.077 10.077 0 007.07 2.93c2.63 0 5.21-1.07 7.069-2.93 1.86-1.86 2.931-4.44 2.931-7.07s-1.07-5.21-2.931-7.07zm-181.828-54.06a10.08 10.08 0 00-7.07-2.93c-2.64 0-5.21 1.07-7.07 2.93a10.062 10.062 0 00-2.93 7.07c0 2.63 1.07 5.21 2.93 7.07s4.431 2.93 7.07 2.93c2.63 0 5.2-1.07 7.07-2.93a10.08 10.08 0 002.93-7.07c0-2.64-1.07-5.21-2.93-7.07zm363.657-.01a10.046 10.046 0 00-7.069-2.92c-2.63 0-5.21 1.06-7.07 2.92a10.1 10.1 0 00-2.93 7.08c0 2.63 1.069 5.21 2.93 7.07a10.077 10.077 0 007.07 2.93c2.64 0 5.21-1.07 7.069-2.93a10.077 10.077 0 002.931-7.07c0-2.64-1.07-5.21-2.931-7.08zm-74.159 43.44a10.085 10.085 0 00-7.07-2.92c-2.641 0-5.21 1.06-7.07 2.92a10.05 10.05 0 00-2.93 7.07c0 2.64 1.06 5.22 2.93 7.08 1.86 1.86 4.43 2.93 7.07 2.93 2.63 0 5.21-1.07 7.07-2.93a10.103 10.103 0 002.93-7.08c0-2.62-1.07-5.2-2.93-7.07zm-215.34 0a10.056 10.056 0 00-7.069-2.93c-2.63 0-5.21 1.07-7.07 2.93a10.093 10.093 0 00-2.93 7.07c0 2.64 1.069 5.22 2.93 7.07 1.86 1.87 4.44 2.94 7.07 2.94a10.021 10.021 0 0010-10.01c0-2.62-1.061-5.2-2.931-7.07zm40.935-99.518c-5.523 0-10 4.511-10 10.034l-.001.184c0 5.523 4.477 9.967 10 9.967s10-4.511 10-10.034l.001-.184c0-5.523-4.478-9.967-10-9.967zM256 40.333c-22.345 0-43.49 10.837-56.563 28.99-3.228 4.482-2.213 10.731 2.27 13.959a9.955 9.955 0 005.835 1.886 9.99 9.99 0 008.123-4.157C224.99 68.063 240.069 60.333 256 60.333c5.522 0 10-4.477 10-10s-4.478-10-10-10zm-96.508 259.078c-5.176-1.931-10.935.704-12.862 5.878l-72 193.216c-1.929 5.176.703 10.935 5.878 12.862A9.967 9.967 0 0084 512c4.056 0 7.872-2.487 9.371-6.511l72-193.216c1.927-5.175-.704-10.934-5.879-12.862zm277.877 199.094l-72-193.216c-1.928-5.175-7.685-7.81-12.862-5.878-5.175 1.928-7.807 7.687-5.878 12.862l72 193.216A10.002 10.002 0 00428 512c1.16 0 2.34-.203 3.491-.633 5.175-1.928 7.807-7.687 5.878-12.862zM256 387.913c-5.522 0-10 4.478-10 10v77.085c0 5.522 4.478 10 10 10s10-4.478 10-10v-77.085c0-5.522-4.478-10-10-10zm7.069-37.985a10.069 10.069 0 00-7.069-2.93c-2.63 0-5.21 1.069-7.07 2.93-1.86 1.861-2.93 4.44-2.93 7.07s1.069 5.21 2.93 7.069a10.077 10.077 0 007.07 2.931c2.63 0 5.21-1.07 7.069-2.931 1.86-1.859 2.931-4.439 2.931-7.069s-1.07-5.21-2.931-7.07zm-180.035-.001l-32.98-32.981a10.001 10.001 0 00-14.142 0L2.929 349.927c-3.905 3.905-3.905 10.237 0 14.143l32.981 32.981a10.003 10.003 0 0014.142 0l32.98-32.981c3.907-3.906 3.907-10.238.002-14.143zm-40.052 25.91l-18.839-18.839 18.839-18.839 18.839 18.839-18.839 18.839zM501.998 20h-9.683V10c0-5.523-4.478-10-10-10s-10 4.477-10 10v10h-9.682c-5.522 0-10 4.477-10 10s4.478 10 10 10h9.682v10c0 5.523 4.478 10 10 10s10-4.477 10-10V40h9.683c5.522 0 10-4.477 10-10s-4.478-10-10-10zM71.07 33.93A10.073 10.073 0 0064.001 31c-2.629 0-5.21 1.07-7.07 2.93s-2.93 4.44-2.93 7.07c0 2.64 1.069 5.21 2.93 7.07a10.077 10.077 0 007.07 2.93c2.63 0 5.21-1.07 7.069-2.93 1.86-1.86 2.931-4.44 2.931-7.07s-1.07-5.21-2.931-7.07zm437.997 420.937a10.074 10.074 0 00-7.069-2.931c-2.63 0-5.21 1.07-7.07 2.931a10.072 10.072 0 00-2.93 7.069c0 2.63 1.069 5.21 2.93 7.07 1.861 1.86 4.44 2.93 7.07 2.93s5.21-1.069 7.069-2.93a10.077 10.077 0 002.931-7.07c0-2.63-1.07-5.21-2.931-7.069z"/>
    </symbol>
    <symbol viewBox="0 0 448 512" id="user" xmlns="http://www.w3.org/2000/svg">
        <path d="M224 256c70.7 0 128-57.3 128-128S294.7 0 224 0 96 57.3 96 128s57.3 128 128 128zm89.6 32h-16.7c-22.2 10.2-46.9 16-72.9 16s-50.6-5.8-72.9-16h-16.7C60.2 288 0 348.2 0 422.4V464c0 26.5 21.5 48 48 48h352c26.5 0 48-21.5 48-48v-41.6c0-74.2-60.2-134.4-134.4-134.4z"/>
    </symbol>
    <symbol viewBox="-93 -21 681 681.334" id="victory" xmlns="http://www.w3.org/2000/svg">
        <path d="M468.676 240.395c-13.52-12.614-32.059-19.563-52.2-19.563-13.167 0-25.632 3.957-36.32 10.758-13.039-16.426-33.082-26.977-55.539-26.977a73.1 73.1 0 00-3.484.09l29.86-114.828c10.316-37.73-11.919-76.852-49.641-87.285-18.262-5.05-37.434-2.664-53.985 6.722-16.562 9.383-28.457 24.606-33.504 42.86-.05.168-.093.332-.133.5L176.121 200.5 136.008 52.305c-.012-.043-.028-.086-.035-.133C125.52 14.382 86.27-7.863 48.48 2.59 10.695 13.043-11.55 52.285-1.133 89.965L63.43 327.816a75.19 75.19 0 00-7.399 9.157l-.765 1.12-49.254 91.989c-14.942 26.387-14.188 54.477 2.25 83.512 6.164 11.781 36.898 68.355 74.246 100.57a101.269 101.269 0 0066.144 24.586H349.11c77.985 0 141.426-63 141.426-140.438V292.207c0-20.254-7.762-38.656-21.86-51.812zM345.824 276.25v44.383c0 11.695-9.512 21.207-21.207 21.207-11.691 0-21.21-9.512-21.21-21.207V276.25c0-11.98 9.519-21.734 21.21-21.734 11.695 0 21.207 9.754 21.207 21.734zM262.016 65.273c1.523-5.32 5.05-9.77 9.953-12.55 4.96-2.809 10.668-3.535 16.078-2.04 11.273 3.118 17.91 14.825 14.793 26.094-.035.125-.07.25-.098.371l-59.597 229.207c-5.497-1.261-11.141-1.937-16.82-1.937h-25.15zM61.78 50.688c11.258-3.11 22.946 3.5 26.082 14.742l64.688 238.988h-34.766a75.76 75.76 0 00-8.86.527L46.997 76.777c-3.121-11.27 3.52-22.976 14.785-26.09zM8.371 513.784c.043.078.09.16.137.238-.016-.027-.07-.113-.137-.238zm340.738 75.067H148.652a51.367 51.367 0 01-33.547-12.47c-25.527-22.019-51.453-64.519-62.75-86.155-.312-.598-.5-.922-.52-.957-9.23-16.157-7.726-25.274-2.312-34.754l48.34-90.262a24.939 24.939 0 0119.926-9.938h108.535c6.992 0 13.84 2.899 18.793 7.95 4.73 4.812 7.258 11.027 7.137 17.5-.258 13.484-11.45 24.453-24.945 24.453h-90.934l-27.29 52.097 44.2 23.157 13.281-25.352h60.743c19.738 0 38.367-7.617 52.449-21.445 12.336-12.117 19.96-27.797 21.906-44.754a70.704 70.704 0 0022.957 3.82c17.793 0 34.067-6.582 46.55-17.422 12.657 10.848 29.079 17.422 47.013 17.422 7.84 0 15.386-1.265 22.457-3.586v110.156c0 49.926-41.063 90.54-91.532 90.54zm69.075-247.012c-12.383 0-22.457-10.07-22.457-22.453v-25.485c0-10.941 8.875-23.168 20.75-23.168 11.683 0 24.164 5.641 24.164 21.473v27.18c0 12.383-10.075 22.453-22.457 22.453zm0 0"/>
    </symbol>
</svg>