<?xml version="1.0" encoding="utf-8"?>
<svg xmlns:xlink="http://www.w3.org/1999/xlink" xmlns="http://www.w3.org/2000/svg">
    <symbol viewBox="0 0 264 512" id="facebook-f" xmlns="http://www.w3.org/2000/svg">
        <path d="M215.8 85H264V3.6C255.7 2.5 227.1 0 193.8 0 124.3 0 76.7 42.4 76.7 120.3V192H0v91h76.7v229h94V283h73.6l11.7-91h-85.3v-62.7c0-26.3 7.3-44.3 45.1-44.3z"/>
    </symbol>
    <symbol viewBox="0 0 640 512" id="google-plus-g" xmlns="http://www.w3.org/2000/svg">
        <path d="M386.061 228.496c1.834 9.692 3.143 19.384 3.143 31.956C389.204 370.205 315.599 448 204.8 448c-106.084 0-192-85.915-192-192s85.916-192 192-192c51.864 0 95.083 18.859 128.611 50.292l-52.126 50.03c-14.145-13.621-39.028-29.599-76.485-29.599-65.484 0-118.92 54.221-118.92 121.277 0 67.056 53.436 121.277 118.92 121.277 75.961 0 104.513-54.745 108.965-82.773H204.8v-66.009h181.261zm185.406 6.437V179.2h-56.001v55.733h-55.733v56.001h55.733v55.733h56.001v-55.733H627.2v-56.001h-55.733z"/>
    </symbol>
    <symbol viewBox="0 0 384 512" id="map-marker-alt" xmlns="http://www.w3.org/2000/svg">
        <path d="M172.268 501.67C26.97 291.031 0 269.413 0 192 0 85.961 85.961 0 192 0s192 85.961 192 192c0 77.413-26.97 99.031-172.268 309.67-9.535 13.774-29.93 13.773-39.464 0zM192 272c44.183 0 80-35.817 80-80s-35.817-80-80-80-80 35.817-80 80 35.817 80 80 80z"/>
    </symbol>
    <symbol viewBox="0 0 512.002 512.002" id="sailboat" xmlns="http://www.w3.org/2000/svg">
        <path d="M511.556 449.552a8.517 8.517 0 00-6.921-5.734L307.2 416.579V394.58l160.896 23.467c3.337.452 6.75-1.092 8.533-4.028a8.542 8.542 0 00-.384-9.421l-14.95-20.608C390.238 286.096 354.406 236.722 307.2 126.25V95.743l75.128 15.027a8.555 8.555 0 009.412-4.762 8.52 8.52 0 00-2.406-10.266L304 27.476a8.532 8.532 0 00-13.866 6.656v28.655c-79.855 37.248-184.132 116.634-238.515 284.45a8.506 8.506 0 00.87 7.134 8.554 8.554 0 006.016 3.942l231.629 33.775v22.135L9.702 375.542a8.49 8.49 0 00-6.775 2.022A8.539 8.539 0 000 383.999c0 56.465 45.935 102.4 102.4 102.4h375.467a8.513 8.513 0 006.033-2.5l25.6-25.6a8.52 8.52 0 002.056-8.747zm-221.423-94.575c-28.484-60.39-14.285-157.995 0-221.602v221.602z"/>
    </symbol>
    <symbol viewBox="0 0 512 512" id="twitter" xmlns="http://www.w3.org/2000/svg">
        <path d="M459.37 151.716c.325 4.548.325 9.097.325 13.645 0 138.72-105.583 298.558-298.558 298.558-59.452 0-114.68-17.219-161.137-47.106 8.447.974 16.568 1.299 25.34 1.299 49.055 0 94.213-16.568 130.274-44.832-46.132-.975-84.792-31.188-98.112-72.772 6.498.974 12.995 1.624 19.818 1.624 9.421 0 18.843-1.3 27.614-3.573-48.081-9.747-84.143-51.98-84.143-102.985v-1.299c13.969 7.797 30.214 12.67 47.431 13.319-28.264-18.843-46.781-51.005-46.781-87.391 0-19.492 5.197-37.36 14.294-52.954 51.655 63.675 129.3 105.258 216.365 109.807-1.624-7.797-2.599-15.918-2.599-24.04 0-57.828 46.782-104.934 104.934-104.934 30.213 0 57.502 12.67 76.67 33.137 23.715-4.548 46.456-13.32 66.599-25.34-7.798 24.366-24.366 44.833-46.132 57.827 21.117-2.273 41.584-8.122 60.426-16.243-14.292 20.791-32.161 39.308-52.628 54.253z"/>
    </symbol>
    <symbol viewBox="0 0 640 512" id="user-friends" xmlns="http://www.w3.org/2000/svg">
        <path d="M192 256c61.9 0 112-50.1 112-112S253.9 32 192 32 80 82.1 80 144s50.1 112 112 112zm76.8 32h-8.3c-20.8 10-43.9 16-68.5 16s-47.6-6-68.5-16h-8.3C51.6 288 0 339.6 0 403.2V432c0 26.5 21.5 48 48 48h288c26.5 0 48-21.5 48-48v-28.8c0-63.6-51.6-115.2-115.2-115.2zM480 256c53 0 96-43 96-96s-43-96-96-96-96 43-96 96 43 96 96 96zm48 32h-3.8c-13.9 4.8-28.6 8-44.2 8s-30.3-3.2-44.2-8H432c-20.4 0-39.2 5.9-55.7 15.4 24.4 26.3 39.7 61.2 39.7 99.8v38.4c0 2.2-.5 4.3-.6 6.4H592c26.5 0 48-21.5 48-48 0-61.9-50.1-112-112-112z"/>
    </symbol>
</svg>