<?xml version="1.0" encoding="utf-8"?>
<svg xmlns:xlink="http://www.w3.org/1999/xlink" xmlns="http://www.w3.org/2000/svg">
    <symbol viewBox="0 0 320 512" id="angle-up" xmlns="http://www.w3.org/2000/svg">
        <path d="M177 159.7l136 136c9.4 9.4 9.4 24.6 0 33.9l-22.6 22.6c-9.4 9.4-24.6 9.4-33.9 0L160 255.9l-96.4 96.4c-9.4 9.4-24.6 9.4-33.9 0L7 329.7c-9.4-9.4-9.4-24.6 0-33.9l136-136c9.4-9.5 24.6-9.5 34-.1z"/>
    </symbol>
    <symbol viewBox="0 0 66.026 66.026" id="binoculars" xmlns="http://www.w3.org/2000/svg">
        <path d="M64.685 34.226c-.011-.02-.016-.043-.027-.063a.391.391 0 00-.018-.031 15.037 15.037 0 00-1.406-2.432c-2.264-3.896-6.633-11.309-8.759-14.234-2.62-3.603-5.673-6.936-10.234-6.936-1.006 0-2.059.171-3.128.507-3.262 1.029-6.436 2.685-7.396 6.708H32.31c-.96-4.023-4.134-5.679-7.397-6.708-1.068-.336-2.121-.507-3.127-.507-4.562 0-7.614 3.333-10.235 6.937C9.425 20.392 5.057 27.805 2.792 31.7a15.08 15.08 0 00-1.406 2.432.665.665 0 01-.018.031c-.011.02-.016.042-.027.063A14.979 14.979 0 000 40.412c0 8.317 6.767 15.084 15.084 15.084 4.867 0 9.191-2.327 11.95-5.917h11.958c2.76 3.59 7.083 5.917 11.95 5.917 8.317 0 15.084-6.767 15.084-15.084 0-2.206-.487-4.296-1.341-6.186zm-49.601 16.27C9.523 50.496 5 45.972 5 40.412s4.523-10.083 10.084-10.083c5.56 0 10.083 4.523 10.083 10.083 0 5.56-4.523 10.084-10.083 10.084zm35.858 0c-5.56 0-10.083-4.523-10.083-10.084 0-5.56 4.523-10.083 10.083-10.083 5.561 0 10.084 4.523 10.084 10.083 0 5.56-4.523 10.084-10.084 10.084z"/>
    </symbol>
    <symbol viewBox="0 0 512 512" id="heart" xmlns="http://www.w3.org/2000/svg">
        <path d="M462.3 62.6C407.5 15.9 326 24.3 275.7 76.2L256 96.5l-19.7-20.3C186.1 24.3 104.5 15.9 49.7 62.6c-62.8 53.6-66.1 149.8-9.9 207.9l193.5 199.8c12.5 12.9 32.8 12.9 45.3 0l193.5-199.8c56.3-58.1 53-154.3-9.8-207.9z"/>
    </symbol>
    <symbol viewBox="0 0 512 512" id="wrench" xmlns="http://www.w3.org/2000/svg">
        <path d="M507.73 109.1c-2.24-9.03-13.54-12.09-20.12-5.51l-74.36 74.36-67.88-11.31-11.31-67.88 74.36-74.36c6.62-6.62 3.43-17.9-5.66-20.16-47.38-11.74-99.55.91-136.58 37.93-39.64 39.64-50.55 97.1-34.05 147.2L18.74 402.76c-24.99 24.99-24.99 65.51 0 90.5 24.99 24.99 65.51 24.99 90.5 0l213.21-213.21c50.12 16.71 107.47 5.68 147.37-34.22 37.07-37.07 49.7-89.32 37.91-136.73zM64 472c-13.25 0-24-10.75-24-24 0-13.26 10.75-24 24-24s24 10.74 24 24c0 13.25-10.75 24-24 24z"/>
    </symbol>
</svg>