<?xml version="1.0" encoding="utf-8"?>
<svg xmlns:xlink="http://www.w3.org/1999/xlink" xmlns="http://www.w3.org/2000/svg">
    <symbol viewBox="0 0 24 24" id="angle-up" xmlns="http://www.w3.org/2000/svg">
        <path d="M17 13.41l-4.29-4.24a1 1 0 0 0-1.42 0l-4.24 4.24a1 1 0 0 0 0 1.42 1 1 0 0 0 1.41 0L12 11.29l3.54 3.54a1 1 0 0 0 .7.29 1 1 0 0 0 .71-.29 1 1 0 0 0 .05-1.42z"/>
    </symbol>
    <symbol viewBox="0 0 38.88 38.938" id="phone" xmlns="http://www.w3.org/2000/svg">
        <path d="M30.76 24.1a3.835 3.835 0 0 0-2.78-1.275 3.961 3.961 0 0 0-2.81 1.266l-2.6 2.59c-.22-.115-.43-.222-.64-.328-.29-.148-.57-.288-.81-.436a28.255 28.255 0 0 1-6.76-6.167 16.505 16.505 0 0 1-2.22-3.5c.67-.617 1.29-1.258 1.9-1.875.23-.23.46-.468.69-.7a3.769 3.769 0 0 0 0-5.691L12.49 5.74a31.48 31.48 0 0 1-.77-.781c-.49-.51-1.01-1.036-1.54-1.53A3.894 3.894 0 0 0 7.43 2.22a4.023 4.023 0 0 0-2.8 1.209l-.02.017-2.79 2.82A6.016 6.016 0 0 0 .04 10.09a14.264 14.264 0 0 0 1.05 6.1 35.316 35.316 0 0 0 6.29 10.491 38.66 38.66 0 0 0 12.88 10.09 20.045 20.045 0 0 0 7.23 2.137c.17.009.36.017.52.017a6.186 6.186 0 0 0 4.74-2.04c.01-.016.03-.024.04-.04a18.534 18.534 0 0 1 1.43-1.489c.36-.337.72-.69 1.07-1.06a4.075 4.075 0 0 0 1.24-2.845 3.948 3.948 0 0 0-1.26-2.821zm2.94 8.658c-.01 0-.01.008 0 0-.32.345-.65.658-1 1a20.736 20.736 0 0 0-1.59 1.644 3.961 3.961 0 0 1-3.09 1.308c-.13 0-.26 0-.38-.008a17.83 17.83 0 0 1-6.41-1.924 36.618 36.618 0 0 1-12.14-9.506 33.386 33.386 0 0 1-5.91-9.858 11.739 11.739 0 0 1-.93-5.148 3.832 3.832 0 0 1 1.14-2.442l2.8-2.8a1.879 1.879 0 0 1 1.25-.584 1.747 1.747 0 0 1 1.2.575l.03.025c.5.469.98.954 1.48 1.472.25.263.51.526.78.8l2.24 2.245a1.571 1.571 0 0 1 0 2.549c-.24.239-.47.477-.71.707-.69.707-1.34 1.365-2.06 2.007-.01.016-.03.024-.04.041a1.669 1.669 0 0 0-.43 1.866l.03.074a17.823 17.823 0 0 0 2.65 4.333l.01.009a30.18 30.18 0 0 0 7.3 6.643 11.286 11.286 0 0 0 1.01.551c.3.148.58.288.82.436.03.016.06.041.09.058a1.821 1.821 0 0 0 .82.2 1.764 1.764 0 0 0 1.25-.567l2.81-2.812a1.851 1.851 0 0 1 1.24-.617 1.657 1.657 0 0 1 1.18.6l.02.017 4.53 4.53a1.624 1.624 0 0 1 .01 2.578zM21.02 9.233a10.6 10.6 0 0 1 8.62 8.617 1.1 1.1 0 0 0 1.09.921 1.522 1.522 0 0 0 .19-.016 1.107 1.107 0 0 0 .91-1.283A12.8 12.8 0 0 0 21.41 7.046a1.109 1.109 0 0 0-1.28.9 1.09 1.09 0 0 0 .89 1.289zm17.86 7.918A21.062 21.062 0 0 0 21.71-.017a1.108 1.108 0 0 0-.36 2.187 18.829 18.829 0 0 1 15.34 15.343 1.1 1.1 0 0 0 1.09.921 1.375 1.375 0 0 0 .19-.016 1.1 1.1 0 0 0 .91-1.265z"
              fill-rule="evenodd"/>
    </symbol>
</svg>